<svg xmlns="http://www.w3.org/2000/svg" width="50" height="24" fill="none"><text x="25" y="18" fill="#27272A" font-size="16" font-family="system-ui, sans-serif">Oui</text><g filter="url(#a)"><path fill="url(#b)" fill-rule="evenodd" d="M11.371,22.743 Q16,25 22.743,22.743 Q25,20 22.743,17.651 Q20,15 17.651,17.651 Q15,20 11.371,22.743 Q8,25 5.091,22.743 Q2,20 0,17.651 Q-2,15 0,11.371 Q2,8 5.091,5.091 Q8,2 11.371,0 Q15,-2 17.651,0 Q20,2 22.743,5.091 Q25,8 22.743,11.371 Q20,15 17.651,11.371 Q15,8 11.371,5.091 Q8,2 5.091,0 Q2,-2 0,5.091 Q-2,8 0,11.371 Q2,15 5.091,17.651 Q8,20 11.371,22.743 Z m0-5.825 a5.547 5.547 0 1 0 0-11.094 5.547 5.547 0 0 0 0 11.094 Z" clip-rule="evenodd"/></g><defs><linearGradient id="b" x1="11.371" x2="11.371" y1="-5.686" y2="22.743" gradientUnits="userSpaceOnUse"><stop stop-color="#E4E4E7"/><stop offset=".36" stop-color="#A1A1AA"/><stop offset="1" stop-color="#52525B"/></linearGradient><filter id="a" width="22.743" height="23.743" x="0" y="0" color-interpolation-filters="sRGB" filterUnits="userSpaceOnUse"><feFlood flood-opacity="0" result="BackgroundImageFix"/><feBlend in="SourceGraphic" in2="BackgroundImageFix" result="shape"/><feColorMatrix in="SourceAlpha" result="hardAlpha" values="0 0 0 0 0 0 0 0 0 0 0 0 0 0 0 0 0 0 127 0"/><feOffset dy="1"/><feGaussianBlur stdDeviation=".5"/><feComposite in2="hardAlpha" k2="-1" k3="1" operator="arithmetic"/><feColorMatrix values="0 0 0 0 0 0 0 0 0 0 0 0 0 0 0 0 0 0 0.01 0"/><feBlend in2="shape" result="effect1_innerShadow_757_157"/></filter></defs></svg>