<svg xmlns="http://www.w3.org/2000/svg" width="50" height="24" fill="none"><text x="25" y="18" fill="#fff" fill-opacity=".88" font-size="16" font-family="system-ui, sans-serif">Oui</text><path fill="url(#a)" fill-rule="evenodd" d="M11.371,22.743 Q16,25 22.743,22.743 Q25,20 22.743,17.651 Q20,15 17.651,17.651 Q15,20 11.371,22.743 Q8,25 5.091,22.743 Q2,20 0,17.651 Q-2,15 0,11.371 Q2,8 5.091,5.091 Q8,2 11.371,0 Q15,-2 17.651,0 Q20,2 22.743,5.091 Q25,8 22.743,11.371 Q20,15 17.651,11.371 Q15,8 11.371,5.091 Q8,2 5.091,0 Q2,-2 0,5.091 Q-2,8 0,11.371 Q2,15 5.091,17.651 Q8,20 11.371,22.743 Z m0-5.825 a5.547 5.547 0 1 0 0-11.094 5.547 5.547 0 0 0 0 11.094 Z" clip-rule="evenodd"/><defs><linearGradient id="a" x1="11.371" x2="11.371" y1="-9.239" y2="22.743" gradientUnits="userSpaceOnUse"><stop stop-color="#F4F4F5"/><stop offset=".506" stop-color="#A1A1AA" stop-opacity=".8"/><stop offset="1" stop-color="#3F3F46" stop-opacity=".8"/></linearGradient></defs></svg>